<svg t="1720425437090" class="icon" viewBox="0 0 1024 1024" version="1.1" xmlns="http://www.w3.org/2000/svg" p-id="15478" width="32" height="32"><path d="M512 0C229.286957 0 0 229.286957 0 512s229.286957 512 512 512 512-229.286957 512-512S794.713043 0 512 0z m227.951304 556.521739h-177.641739v177.641739c0 24.486957-20.034783 44.521739-44.521739 44.521739s-44.521739-20.034783-44.521739-44.521739V556.521739h-177.641739c-24.486957 0-44.521739-20.034783-44.521739-44.521739s20.034783-44.521739 44.521739-44.521739h177.641739v-177.641739c0-24.486957 20.034783-44.521739 44.521739-44.521739s44.521739 20.034783 44.521739 44.521739V467.478261h177.641739a44.521739 44.521739 0 1 1 0 89.043478z" fill="#008AFF" p-id="15479"></path></svg>