<svg t="1720423601606" class="icon" viewBox="0 0 1146 1024" version="1.1" xmlns="http://www.w3.org/2000/svg" p-id="9628" width="200" height="200"><path d="M78.930335 655.071005c41.094374-50.344059 110.766133-64.057523 172.476722-64.42567 111.088262 7.593025 212.788783 59.409671 306.85026 115.045839-71.972677 79.197555-152.32069 161.570376-260.463778 186.190185-71.144347 11.596621-153.839295 5.844329-208.325005-46.846665-46.524537-50.620169-55.590149-135.708071-10.538199-190.147762z" fill="#FFFFFF" p-id="9629"></path><path d="M428.347556 0.414165c48.043142 0.644257 96.086284-1.65666 144.129427 0.644257 32.488945 40.450117 5.108035 100.872191 5.936365 149.237462 103.173108 6.120439 206.668344 1.472587 309.979508 2.945173 0 24.941938 0 49.699802-0.322129 74.457667-100.688118 0.322128-201.192163 6.62664-301.88028 3.957577v95.257954c83.845407-3.129247 167.736833 4.279705 251.58224 3.957577-16.014381 106.624483-51.494517 208.969261-95.902211 306.85026 134.833723 49.193601 269.713464 98.065073 404.225058 148.225059-0.322128 79.243574 0 158.625202-0.506202 238.052849-157.934927-83.707352-313.614956-172.200611-469.939241-258.991192-92.036671 115.874169-218.67913 216.700342-370.907784 229.447421-102.160705 6.580622-224.799569-22.641021-275.465755-121.028223-55.222003-113.06705-36.49254-284.393313 92.03667-338.694948 162.398706-77.909042 338.37282 3.31332 495.525436 54.301636 16.980766-67.831026 49.699802-131.566421 56.924681-201.882438-157.934927 3.129247-316.099946 0.322128-473.988855 1.65666V325.901852c75.930253 1.012403 151.860507 0.368147 227.928816 1.334531 0-35.158008 0-70.316017-0.322129-105.474025-94.567679 4.96998-189.181377 7.270897-283.887111 5.936366l-0.506202-74.273594c95.073881-0.506202 189.963689 0 284.899515-0.322128V0.414165M78.930335 655.071005c-45.05195 54.439691-35.986338 139.61963 10.538199 190.147762 54.485709 52.506921 137.180658 58.259213 208.417041 46.892684 108.143088-24.619809 188.675175-106.99263 260.463779-186.190185-94.061478-55.820241-195.761999-107.636887-306.850261-115.045839-61.710588 0.322128-131.382348 14.035592-172.476721 64.42567z" fill="#00A7FF" p-id="9630"></path></svg>