<svg t="1720447609718" class="icon" viewBox="0 0 1024 1024" version="1.1" xmlns="http://www.w3.org/2000/svg" p-id="36115" width="200" height="200"><path d="M487.747368 439.242105l72.757895 72.757895-70.063158 70.063158s-2.694737 0-2.694737 2.694737c-5.389474 5.389474-5.389474 16.168421 0 21.557894 5.389474 5.389474 16.168421 5.389474 21.557895 0l72.757895-72.757894 72.757895 72.757894c5.389474 5.389474 16.168421 5.389474 21.557894 0 5.389474-5.389474 5.389474-16.168421 0-21.557894l-2.694736-2.694737-70.063158-70.063158 72.757894-72.757895c5.389474-5.389474 5.389474-16.168421 0-21.557894-5.389474-5.389474-16.168421-5.389474-21.557894 0 0 0 0 2.694737-2.694737 2.694736l-70.063158 70.063158-70.063158-70.063158s0-2.694737-2.694737-2.694736c-2.694737-2.694737-8.084211-5.389474-10.778947-5.389474-5.389474 0-8.084211 2.694737-10.778948 5.389474-8.084211 5.389474-8.084211 16.168421 0 21.557894zM183.242105 635.957895l-5.389473-5.389474-5.389474-5.389474-56.589474-56.589473-2.694737-2.694737-2.694736-2.694737-2.694737-2.694737v2.694737c-5.389474-5.389474-8.084211-10.778947-13.473685-13.473684-2.694737-5.389474-8.084211-8.084211-8.08421-13.473684v-2.694737c-5.389474-13.473684-5.389474-26.947368 0-37.726316v-2.694737c2.694737-5.389474 5.389474-10.778947 8.08421-13.473684 2.694737-5.389474 8.084211-10.778947 13.473685-13.473684 0-2.694737 2.694737-2.694737 5.389473-5.389474l2.694737-2.694737 2.694737-2.694737 2.694737-2.694737 56.589474-56.589473 5.389473-5.389474 2.694737-2.694737 2.694737-2.694737L250.610526 323.368421l8.084211-8.08421 8.08421-8.084211 2.694737-2.694737c8.084211-8.084211 18.863158-16.168421 29.642105-21.557895 10.778947-5.389474 21.557895-8.084211 32.336843-10.778947 10.778947-2.694737 21.557895-2.694737 32.336842-2.694737H835.368421c10.778947 0 21.557895 0 32.336842 2.694737 10.778947 2.694737 21.557895 5.389474 32.336842 10.778947 10.778947 5.389474 18.863158 13.473684 29.642106 21.557895 8.084211 8.084211 16.168421 18.863158 21.557894 29.642105 5.389474 10.778947 8.084211 21.557895 10.778948 32.336843 2.694737 10.778947 2.694737 21.557895 2.694736 32.336842v226.357894c0 10.778947 0 21.557895-2.694736 32.336842-2.694737 10.778947-5.389474 21.557895-10.778948 32.336843-5.389474 10.778947-13.473684 18.863158-21.557894 29.642105-8.084211 8.084211-18.863158 16.168421-29.642106 21.557895-10.778947 5.389474-21.557895 8.084211-32.336842 10.778947-16.168421 2.694737-26.947368 2.694737-37.726316 2.694737H358.4c-10.778947 0-21.557895 0-32.336842-2.694737-10.778947-2.694737-21.557895-5.389474-32.336842-10.778947-10.778947-5.389474-18.863158-13.473684-26.947369-21.557895l-2.694736-2.694737-8.084211-8.084211-8.084211-8.08421-64.673684-64.673684z" fill="#060606" p-id="36116"></path></svg>