<svg t="1720447556728" class="icon" viewBox="0 0 1024 1024" version="1.1" xmlns="http://www.w3.org/2000/svg" p-id="29914" width="20" height="20"><path d="M76.094377 995.097685c-8.806174 0-17.612348-3.612789-23.93473-9.935171a34.547299 34.547299 0 0 1-9.709371-27.32172l26.192723-267.120618c0.451599-43.579272 18.515546-86.029548 49.450055-116.738258L544.176406 151.285557c13.322161-13.096362 34.547299-13.096362 47.869459 0l296.926131 296.92613a33.847321 33.847321 0 0 1 0 47.86946l-426.76075 423.373759a165.917354 165.917354 0 0 1-115.835061 48.546858l-266.894818 27.095921h-3.38699zM567.885336 223.089746L165.736714 622.077178c-18.741345 18.515546-29.353914 44.25667-29.353914 70.449393 0 1.128997 0 2.257993-0.225799 3.38699l-22.128335 227.379934 227.379934-23.031532c1.128997-0.225799 2.257993-0.225799 3.38699-0.2258 26.418523 0 51.25645-10.16097 69.997795-28.902315L817.167806 471.920617 567.885336 223.089746zM102.5129 692.526571z" fill="#090808" p-id="29915"></path><path d="M865.037266 506.016318c-9.031974 0-17.612348-3.612789-23.93473-9.935171L544.402205 199.606615a33.644101 33.644101 0 0 1 0-47.86946l93.480926-93.480926a98.267872 98.267872 0 0 1 138.640794 0l204.122602 204.122602c18.967144 18.967144 29.579713 44.25667 29.579713 71.126792s-10.38677 52.159647-29.579713 71.126792l-91.448732 91.448732c-6.548181 6.322381-15.354355 9.935171-24.160529 9.935171zM616.206395 175.671885L864.811466 424.276957l67.514003-67.514002c6.322381-6.322381 9.709372-14.451158 9.709371-23.257332s-3.38699-16.93495-9.709371-23.257332L728.428666 106.125689a30.257111 30.257111 0 0 0-42.676075 0l-69.546196 69.546196z" fill="#090808" p-id="29916"></path></svg>