<svg t="1720440315977" class="icon" viewBox="0 0 1024 1024" version="1.1" xmlns="http://www.w3.org/2000/svg" p-id="17977" width="26" height="26"><path d="M102.4 486.4l396.8-396.8c19.2-12.8 38.4-25.6 64-25.6h307.2c25.6 0 44.8 6.4 64 25.6 19.2 19.2 25.6 38.4 25.6 64v307.2c0 25.6-12.8 44.8-25.6 64l-396.8 396.8c-19.2 19.2-38.4 25.6-64 25.6s-44.8-6.4-64-25.6L102.4 614.4c-19.2-19.2-25.6-38.4-25.6-64s6.4-44.8 25.6-64z m704-198.4c38.4 0 64-32 64-64s-32-64-64-64c-38.4 0-64 32-64 64s25.6 64 64 64z m0 0" fill="#2F8DF7" p-id="17978"></path></svg>